# xmcd CD database file
#
# Track frame offsets:
#	150
#	16743
#	45594
#	64489
#	85684
#	105434
#	138005
#	150099
#	190302
#	211246
#	250289
#	270735
#	300478
#	315713
#
# Disc length: 4302 seconds
#
# Revision: 2
# Processed by: cddbd v1.5.2PL0 Copyright (c) Steve Scherf et al.
# Submitted via: CDex 1.51
#
DISCID=ab10cc0e
DTITLE=Andrey Klimkovsky - Музыка Звезд - V
DYEAR=1900
DGENRE=New Age
TTITLE0=Intro
TTITLE1=Земля - Кассиопея (фантастический рейс)
TTITLE2=Звезды над руинами храма (бета Кассиопеи - "Каф")
TTITLE3=Сверхновая 1572
TTITLE4=Дельта Кассиопеи - "Рухбаг"
TTITLE5=Восхождение к зениту
TTITLE6=Ожерелье царицы Эфиопии (гамма Кассиопеи)
TTITLE7=Взгляните на звездное небо
TTITLE8=Потерянный мир
TTITLE9=Меркурий - темная сторона
TTITLE10=Одинокая гитара в ночи
TTITLE11=Андромеда
TTITLE12=Клятва
TTITLE13=Outro
EXTD=
EXTT0=
EXTT1=
EXTT2=
EXTT3=
EXTT4=
EXTT5=
EXTT6=
EXTT7=
EXTT8=
EXTT9=
EXTT10=
EXTT11=
EXTT12=
EXTT13=
PLAYORDER=
